<mxfile host="app.diagrams.net" modified="2024-07-18T07:33:31.481Z" agent="Mozilla/5.0 (Windows NT 10.0; Win64; x64) AppleWebKit/537.36 (KHTML, like Gecko) Chrome/126.0.0.0 Safari/537.36 Edg/126.0.0.0" version="24.2.2" etag="M3vVIE_7q8pGgN_2UEHY" type="github">
  <diagram name="Page-1" id="swhyl1EIYODESvVADR6k">
    <mxGraphModel>
      <root>
        <mxCell id="0" />
        <mxCell id="1" parent="0" />
      </root>
    </mxGraphModel>
  </diagram>
</mxfile>
